# Blender v2.93.1 OBJ File: ''
# www.blender.org
mtllib page.mtl
o Cube
v -0.234285 -0.930822 -0.079679
v -0.234285 -0.941033 -0.079679
v -0.234285 -0.930822 0.079679
v -0.234285 -0.941033 0.079679
v -0.347302 -0.930822 -0.079679
v -0.347302 -0.941033 -0.079679
v -0.347302 -0.930822 0.079679
v -0.347302 -0.941033 0.079679
vt 0.939462 0.474971
vt 0.939462 0.800443
vt 1.000000 0.800443
vt 1.000000 0.474971
vt 0.060538 0.613796
vt 0.060538 0.844622
vt 0.121077 0.844622
vt 0.121077 0.613796
vt 0.939462 0.149500
vt 0.939462 0.474971
vt 1.000000 0.474971
vt 1.000000 0.149500
vt 0.000000 0.613796
vt 0.000000 0.844622
vt 0.060538 0.844622
vt 0.060538 0.613796
vt 0.740187 1.037632
vt 0.740187 0.573336
vt 0.270457 0.573336
vt 0.270457 1.037632
vt 0.469731 0.613796
vt 0.469731 0.149500
vt 0.000000 0.149500
vt 0.000000 0.613796
vn 1.0000 0.0000 0.0000
vn 0.0000 0.0000 1.0000
vn -1.0000 0.0000 0.0000
vn 0.0000 0.0000 -1.0000
vn 0.0000 1.0000 0.0000
vn 0.0000 -1.0000 0.0000
usemtl Material
s off
f 1/1/1 3/2/1 4/3/1 2/4/1
f 3/5/2 7/6/2 8/7/2 4/8/2
f 7/9/3 5/10/3 6/11/3 8/12/3
f 5/13/4 1/14/4 2/15/4 6/16/4
f 3/17/5 1/18/5 5/19/5 7/20/5
f 8/21/6 6/22/6 2/23/6 4/24/6
