# Blender v2.90.1 OBJ File: ''
# www.blender.org
mtllib Shtyky1LP.mtl
o Shtyky1LP_Plane.002
v 0.944638 -0.031648 0.932476
v 0.991194 -0.031648 0.889595
v 0.991194 0.031648 0.889595
v 0.944638 0.031648 0.932476
v 0.345335 -0.031648 -1.566640
v 0.402818 -0.031648 -1.540144
v 0.402818 0.031648 -1.540144
v 0.345335 0.031648 -1.566640
v 0.413831 -0.031648 -1.629118
v 0.433071 -0.031648 -1.568818
v 0.433071 0.031648 -1.568818
v 0.413831 0.031648 -1.629118
v 0.983103 0.000000 -1.527121
v 0.783900 -0.031648 -0.180905
v 0.837799 -0.031648 -0.214090
v 0.837799 0.031648 -0.214090
v 0.783900 0.031648 -0.180905
v 0.827218 -0.031648 0.802174
v 0.885634 -0.031648 0.777804
v 0.885634 0.031648 0.777804
v 0.827218 0.031648 0.802174
v 0.304672 -0.031648 -0.451718
v 0.359925 -0.031648 -0.482596
v 0.359925 0.031648 -0.482596
v 0.304672 0.031648 -0.451718
v 0.861716 -0.031648 0.281857
v 0.860223 0.031648 0.224236
v 0.804228 -0.031648 0.254205
v 0.858303 -0.031648 0.150153
v 0.804207 0.031648 0.253289
v 0.994541 -0.031648 0.227346
v 0.974577 -0.031648 0.098430
v 1.353110 -0.031648 0.932476
v 1.306553 -0.031648 0.889595
v 1.306553 0.031648 0.889595
v 1.353110 0.031648 0.932476
v 1.952412 -0.031648 -1.566640
v 1.894929 -0.031648 -1.540144
v 1.894929 0.031648 -1.540144
v 1.952412 0.031648 -1.566640
v 1.883917 -0.031648 -1.629118
v 1.864676 -0.031648 -1.568818
v 1.864676 0.031648 -1.568818
v 1.883917 0.031648 -1.629118
v 1.314644 0.000000 -1.527121
v 1.513847 -0.031648 -0.180905
v 1.459949 -0.031648 -0.214090
v 1.459949 0.031648 -0.214090
v 1.513847 0.031648 -0.180905
v 1.148874 -0.031648 0.921878
v 1.148874 -0.031648 0.984730
v 1.148874 0.031648 0.984730
v 1.148874 0.031648 0.921878
v 1.470530 -0.031648 0.802174
v 1.412114 -0.031648 0.777804
v 1.412114 0.031648 0.777804
v 1.470530 0.031648 0.802174
v 1.993075 -0.031648 -0.451718
v 1.937822 -0.031648 -0.482596
v 1.937822 0.031648 -0.482596
v 1.993075 0.031648 -0.451718
v 1.436031 -0.031648 0.281857
v 1.493645 -0.031648 0.248861
v 1.439444 -0.031648 0.150153
v 1.437284 0.031648 0.233498
v 1.493323 0.031648 0.262507
v 1.303206 -0.031648 0.227346
v 1.323170 -0.031648 0.098430
v 1.148874 -0.031648 0.197631
v 1.148874 -0.031648 0.065871
v -0.101676 -0.101676 0.400066
v -0.101676 0.101676 0.400066
v -0.086202 -0.086202 -0.086202
v -0.086202 0.086202 -0.086202
v 0.101676 -0.101676 0.400066
v 0.101676 0.101676 0.400066
v 0.086202 -0.086202 -0.086202
v 0.086202 0.086202 -0.086202
v -0.063266 -0.063266 0.853389
v -0.063266 0.063266 0.853389
v 0.063266 0.063266 0.853389
v 0.063266 -0.063266 0.853389
v -0.035910 0.035910 -0.214414
v -0.035910 -0.035910 -0.214414
v 0.035910 -0.035910 -0.214414
v 0.035910 0.035910 -0.214414
v -0.035910 0.036176 -1.198903
v -0.035910 -0.025825 -1.198903
v 0.035910 -0.035910 -1.198903
v 0.035910 0.035910 -1.198903
v -0.042854 0.037256 -1.214165
v -0.042854 -0.020587 -1.214165
v 0.002151 -0.034267 -1.270135
v 0.002151 0.035910 -1.270135
v -0.094582 0.042629 -1.224205
v -0.094582 -0.003411 -1.224205
v -0.081982 -0.003411 -1.294912
v -0.081982 0.042629 -1.294912
v -0.136019 0.048191 -1.224117
v -0.176187 0.014434 -1.224117
v -0.176056 0.014346 -1.295937
v -0.135889 0.048103 -1.295937
v -0.161977 0.100247 -1.224417
v -0.233794 0.099591 -1.224417
v -0.233792 0.099434 -1.296237
v -0.161975 0.100089 -1.296237
v -0.132704 0.144162 -1.229088
v -0.169334 0.195206 -1.229088
v -0.169446 0.195126 -1.291915
v -0.132816 0.144082 -1.291915
v 0.017394 0.151819 -1.236011
v 0.018586 0.201456 -1.236011
v 0.018477 0.201459 -1.285663
v 0.017285 0.151822 -1.285663
v 0.094565 0.142020 -1.241222
v 0.104592 0.180268 -1.241222
v 0.104508 0.180290 -1.280763
v 0.094481 0.142042 -1.280763
v -0.865079 -0.101676 0.400066
v -0.865079 0.101676 0.400066
v -0.849604 -0.086202 -0.086202
v -0.849604 0.086202 -0.086202
v -0.661726 -0.101676 0.400066
v -0.661726 0.101676 0.400066
v -0.677201 -0.086202 -0.086202
v -0.677201 0.086202 -0.086202
v -0.826668 -0.063266 0.853389
v -0.826668 0.063266 0.853389
v -0.700137 0.063266 0.853389
v -0.700137 -0.063266 0.853389
v -0.818169 0.035910 -0.214414
v -0.818169 -0.035910 -0.214414
v -0.708636 -0.035910 -0.214414
v -0.708636 0.035910 -0.214414
v -0.818169 0.014232 -1.198903
v -0.818169 -0.008384 -1.299642
v -0.708636 0.014135 -1.198903
v -0.818169 0.014160 -0.471530
v -0.818169 -0.011101 -0.471530
v -0.708636 -0.012062 -0.471530
v -0.708636 0.014135 -0.471530
v -0.708636 -0.035910 -0.453292
v -0.818169 -0.033463 -0.453292
v -0.818169 0.035975 -0.453292
v -0.708636 0.035910 -0.453292
v -0.708636 -0.012062 -1.299642
v -0.785983 0.086982 -1.198903
v -0.818133 0.054889 -1.198903
v -0.708600 0.054792 -1.198903
v -0.740694 0.086942 -1.198903
v -0.818133 0.054889 -1.299642
v -0.785983 0.086982 -1.299642
v -0.740694 0.086942 -1.299642
v -0.708600 0.054792 -1.299642
v -1.496194 0.008318 -0.005313
v -1.496194 0.023072 -0.005313
v -1.605727 0.008318 -0.005313
v -1.605727 0.023072 -0.005313
v -1.605727 0.009548 0.737861
v -1.579476 0.007377 0.764113
v -1.579476 -0.007377 0.764113
v -1.605727 -0.005206 0.737861
v -1.496194 -0.005206 0.737861
v -1.522446 -0.007377 0.764113
v -1.522446 0.007377 0.764113
v -1.496194 0.009548 0.737861
v -1.579476 0.007377 -0.774738
v -1.605727 0.009548 -0.748487
v -1.605727 -0.005206 -0.748487
v -1.579476 -0.007377 -0.774738
v -1.522446 -0.007377 -0.774738
v -1.496194 -0.005206 -0.748487
v -1.496194 0.009548 -0.748487
v -1.522446 0.007377 -0.774738
vt 0.601179 0.791744
vt 0.594125 0.784665
vt 0.623558 0.784665
vt 0.616504 0.791744
vt 0.757343 0.028354
vt 0.757319 0.228422
vt 0.727777 0.228371
vt 0.728076 0.028333
vt 0.757021 0.428460
vt 0.748468 0.434554
vt 0.735547 0.435139
vt 0.727754 0.428439
vt 0.760968 0.428394
vt 0.761291 0.228425
vt 0.761291 0.028426
vt 0.750515 0.016955
vt 0.760581 0.024543
vt 0.748894 0.021503
vt 0.735944 0.022262
vt 0.623558 0.584933
vt 0.594125 0.584933
vt 0.594125 0.385201
vt 0.623558 0.385201
vt 0.733868 0.438919
vt 0.750069 0.438859
vt 0.759888 0.432194
vt 0.725340 0.024951
vt 0.734253 0.018564
vt 0.601179 0.378123
vt 0.616504 0.378123
vt 0.724757 0.431884
vt 0.723806 0.428367
vt 0.723806 0.228368
vt 0.724129 0.028399
vt 0.150104 0.153530
vt 0.149068 0.164593
vt 0.135308 0.166698
vt 0.135554 0.151558
vt 0.166481 0.154219
vt 0.167050 0.166237
vt 0.181647 0.151996
vt 0.181242 0.169177
vt 0.195069 0.149796
vt 0.196533 0.169614
vt 0.163342 0.016955
vt 0.140834 0.474380
vt 0.147383 0.623956
vt 0.133968 0.624189
vt 0.124788 0.474569
vt 0.160540 0.474393
vt 0.160838 0.623732
vt 0.176537 0.474560
vt 0.174285 0.623360
vt 0.194881 0.474548
vt 0.192631 0.622860
vt 0.147182 0.744620
vt 0.143941 0.885925
vt 0.126817 0.886553
vt 0.131484 0.736013
vt 0.164479 0.729298
vt 0.162458 0.886076
vt 0.178174 0.735758
vt 0.180403 0.885795
vt 0.195908 0.735887
vt 0.196533 0.885748
vt 0.130071 0.929162
vt 0.145524 0.932998
vt 0.148462 0.976168
vt 0.135205 0.980489
vt 0.179001 0.927917
vt 0.195256 0.928500
vt 0.192244 0.980941
vt 0.176499 0.980037
vt 0.163897 0.932484
vt 0.162675 0.976105
vt 0.146723 0.709061
vt 0.746453 0.472830
vt 0.781844 0.473747
vt 0.767196 0.509439
vt 0.732555 0.504074
vt 0.732555 0.597745
vt 0.723806 0.550910
vt 0.759211 0.550910
vt 0.767196 0.592381
vt 0.044537 0.846494
vt 0.029993 0.848569
vt 0.029642 0.833423
vt 0.043423 0.835433
vt 0.060918 0.845690
vt 0.061402 0.833661
vt 0.076107 0.847807
vt 0.075581 0.830621
vt 0.089551 0.849915
vt 0.090877 0.830076
vt 0.058740 0.983045
vt 0.033009 0.525549
vt 0.016955 0.525468
vt 0.025150 0.375744
vt 0.038570 0.375972
vt 0.052725 0.525400
vt 0.051991 0.376192
vt 0.068727 0.525118
vt 0.065390 0.376556
vt 0.087082 0.524997
vt 0.083728 0.376572
vt 0.039192 0.255028
vt 0.023278 0.265044
vt 0.020708 0.111629
vt 0.037961 0.112553
vt 0.056432 0.268133
vt 0.056610 0.112730
vt 0.070277 0.261807
vt 0.074663 0.113344
vt 0.085901 0.265454
vt 0.090877 0.113906
vt 0.024815 0.068671
vt 0.031053 0.016955
vt 0.044349 0.021591
vt 0.040493 0.065109
vt 0.074171 0.070929
vt 0.072739 0.018269
vt 0.088655 0.017687
vt 0.090592 0.070696
vt 0.059024 0.066003
vt 0.058699 0.021949
vt 0.038365 0.290832
vt 0.746453 0.628990
vt 0.781844 0.628073
vt 0.584598 0.192425
vt 0.533774 0.203368
vt 0.520211 0.089287
vt 0.557673 0.086863
vt 0.476848 0.077978
vt 0.505595 0.043245
vt 0.526406 0.050637
vt 0.594519 0.073235
vt 0.634940 0.041108
vt 0.689895 0.170367
vt 0.635264 0.181454
vt 0.476120 0.216204
vt 0.576640 0.325950
vt 0.540899 0.341577
vt 0.650309 0.307079
vt 0.687442 0.304626
vt 0.689895 0.341759
vt 0.652762 0.344212
vt 0.613090 0.314527
vt 0.540460 0.378393
vt 0.560214 0.378559
vt 0.559024 0.668974
vt 0.537992 0.677332
vt 0.549096 0.047512
vt 0.570106 0.036290
vt 0.586559 0.016955
vt 0.476541 0.667145
vt 0.496255 0.665189
vt 0.496472 0.682404
vt 0.481956 0.688140
vt 0.519884 0.378148
vt 0.517149 0.673028
vt 0.476120 0.378153
vt 0.497203 0.378123
vt 0.537454 0.683009
vt 0.560214 0.687518
vt 0.552623 0.706700
vt 0.532896 0.701592
vt 0.516782 0.678929
vt 0.548771 0.718338
vt 0.530258 0.714573
vt 0.519679 0.697044
vt 0.500678 0.701085
vt 0.491644 0.706802
vt 0.531160 0.729692
vt 0.530251 0.741768
vt 0.519939 0.742567
vt 0.517938 0.729798
vt 0.519034 0.716707
vt 0.507753 0.718018
vt 0.497498 0.717975
vt 0.510184 0.730674
vt 0.496509 0.732931
vt 0.547033 0.731340
vt 0.511588 0.743178
vt 0.530015 0.769682
vt 0.522898 0.768486
vt 0.544400 0.742847
vt 0.500859 0.745226
vt 0.516052 0.770216
vt 0.507780 0.776838
vt 0.538102 0.774188
vt 0.523808 0.775348
vt 0.521693 0.777145
vt 0.525540 0.776650
vt 0.525226 0.785469
vt 0.335369 0.168886
vt 0.385974 0.159991
vt 0.398139 0.277097
vt 0.357830 0.280111
vt 0.442210 0.283876
vt 0.426236 0.320583
vt 0.390833 0.316358
vt 0.317726 0.290792
vt 0.273753 0.315033
vt 0.230444 0.184189
vt 0.284733 0.176901
vt 0.442210 0.148748
vt 0.349143 0.038506
vt 0.384502 0.024809
vt 0.276512 0.053248
vt 0.240219 0.053593
vt 0.239874 0.017301
vt 0.276166 0.016955
vt 0.313139 0.047924
vt 0.317171 0.685141
vt 0.288945 0.693484
vt 0.233541 0.506048
vt 0.261766 0.497705
vt 0.366752 0.319737
vt 0.331169 0.331898
vt 0.311942 0.344126
vt 0.323681 0.683218
vt 0.259924 0.470023
vt 0.358626 0.672770
vt 0.351881 0.674786
vt 0.288139 0.461589
vt 0.302638 0.485508
vt 0.395888 0.382347
vt 0.420789 0.391203
vt 0.418126 0.398051
vt 0.391717 0.387777
vt 0.379826 0.383599
vt 0.384657 0.388779
vt 0.343583 0.405202
vt 0.358191 0.390356
vt 0.358584 0.398433
vt 0.352655 0.404384
vt 0.356694 0.441092
vt 0.358626 0.468769
vt 0.348158 0.471899
vt 0.340403 0.445963
vt 0.336462 0.475396
vt 0.324802 0.478882
vt 0.317047 0.452946
vt 0.328708 0.449459
vt 0.305351 0.456442
vt 0.313106 0.482379
vt 0.254519 0.453903
vt 0.259963 0.442977
vt 0.271502 0.439113
vt 0.282428 0.444556
vt 0.230444 0.495571
vt 0.236275 0.484847
vt 0.247945 0.481397
vt 0.258670 0.487228
vn 0.0000 0.9966 -0.0824
vn 0.0000 -0.9998 0.0182
vn 0.0000 -0.9966 -0.0824
vn 1.0000 0.0000 0.0000
vn 0.7071 0.0000 -0.7071
vn 0.0000 -0.9966 0.0824
vn 0.0000 0.9998 0.0182
vn 0.0000 -0.9998 -0.0182
vn 0.0000 0.0000 1.0000
vn 0.0000 0.9998 -0.0182
vn 0.7071 0.0000 0.7071
vn -0.7071 0.0000 -0.7071
vn 0.0000 0.9966 0.0824
vn -0.7071 0.0000 0.7071
vn -1.0000 0.0000 0.0000
vn 0.0000 0.0000 -1.0000
vn 0.2218 -0.8146 0.5359
vn 0.5434 -0.8024 0.2468
vn -0.7050 -0.6295 -0.3266
vn -0.2047 -0.6259 -0.7525
vn 0.2218 0.8146 0.5359
vn 0.5434 0.8024 0.2468
vn -0.2047 0.6259 -0.7525
vn -0.7050 0.6295 -0.3266
vn 0.9920 0.0000 0.1257
vn 0.4663 -0.8455 -0.2603
vn 0.6736 -0.6090 -0.4187
vn -0.4703 -0.8337 0.2894
vn -0.6937 -0.6067 0.3880
vn 0.4663 0.8455 -0.2603
vn 0.6682 0.6171 -0.4154
vn -0.6937 0.6067 0.3880
vn -0.4703 0.8337 0.2893
vn 0.8454 -0.5330 -0.0350
vn 0.5578 -0.7953 -0.2371
vn -0.7128 -0.6381 0.2911
vn -0.7059 -0.7076 0.0313
vn 0.7068 0.7069 -0.0266
vn 0.5604 0.7932 -0.2382
vn -0.7058 0.7077 0.0313
vn -0.7127 0.6382 0.2910
vn -0.3944 -0.6474 0.6521
vn 0.3034 -0.7816 -0.5450
vn 0.0000 -0.7552 -0.6555
vn 0.0000 -0.6553 0.7553
vn -0.3944 0.6474 0.6521
vn 0.0000 0.6553 0.7553
vn 0.3034 0.7816 -0.5450
vn 0.0000 0.7552 -0.6555
vn 0.9419 -0.3329 -0.0445
vn 0.0000 1.0000 0.0000
vn -0.2218 -0.8146 0.5359
vn 0.2047 -0.6259 -0.7525
vn 0.7050 -0.6295 -0.3266
vn -0.5434 -0.8024 0.2468
vn -0.2218 0.8146 0.5359
vn -0.5434 0.8024 0.2468
vn 0.2047 0.6259 -0.7525
vn 0.7050 0.6295 -0.3266
vn -0.9920 0.0000 0.1257
vn -0.4663 -0.8455 -0.2603
vn 0.6937 -0.6067 0.3880
vn 0.4700 -0.8339 0.2892
vn -0.6740 -0.6085 -0.4188
vn -0.4663 0.8455 -0.2603
vn -0.6680 0.6176 -0.4151
vn 0.6937 0.6067 0.3880
vn 0.4706 0.8335 0.2895
vn -0.8459 -0.5322 -0.0346
vn 0.7050 -0.7085 0.0315
vn 0.7124 -0.6386 0.2909
vn -0.5581 -0.7952 -0.2372
vn -0.7066 0.7071 -0.0267
vn -0.5602 0.7934 -0.2381
vn 0.7067 0.7068 0.0311
vn 0.7131 0.6377 0.2912
vn 0.3944 -0.6474 0.6521
vn -0.3034 -0.7816 -0.5450
vn 0.3944 0.6474 0.6521
vn -0.3034 0.7816 -0.5450
vn -0.9424 -0.3314 -0.0448
vn -0.7066 -0.7066 0.0358
vn -0.7066 0.7066 0.0358
vn -0.6849 0.6849 -0.2485
vn -0.6849 -0.6849 -0.2485
vn 0.6849 0.6849 -0.2485
vn 0.6785 0.6779 -0.2831
vn -0.6778 0.6784 -0.2833
vn 0.6849 -0.6849 -0.2485
vn 0.7066 0.7066 0.0358
vn 0.7066 -0.7066 0.0358
vn -0.5539 0.5539 0.6215
vn 0.5539 0.5539 0.6215
vn 0.5539 -0.5539 0.6215
vn -0.5539 -0.5539 0.6215
vn 0.7347 0.6585 -0.1627
vn -0.6397 0.7548 0.1454
vn -0.6888 -0.6682 -0.2810
vn 0.6659 -0.6877 -0.2892
vn 0.6923 -0.7007 -0.1721
vn 0.3818 -0.6983 -0.6055
vn 0.5310 0.6095 -0.5885
vn -0.6698 -0.7340 0.1124
vn -0.3019 0.8279 0.4726
vn 0.1712 0.6723 -0.7202
vn 0.0114 0.7188 0.6951
vn -0.5679 -0.7362 0.3680
vn 0.3260 0.4484 -0.8322
vn 0.3185 0.4553 0.8314
vn -0.2626 -0.6933 0.6711
vn -0.0454 -0.6424 -0.7649
vn 0.5409 0.0000 0.8410
vn 0.3218 -0.4680 0.8230
vn -0.3677 0.7002 0.6120
vn -0.7940 0.0084 0.6078
vn -0.4313 -0.6456 0.6302
vn -0.4257 -0.6456 -0.6340
vn -0.7936 0.0053 -0.6083
vn 0.5406 -0.0055 -0.8412
vn -0.3695 0.6986 -0.6127
vn 0.0140 -0.6826 0.7306
vn 0.1072 0.7290 0.6761
vn 0.3189 -0.4699 -0.8231
vn 0.1045 0.7286 -0.6768
vn 0.0113 -0.6828 -0.7305
vn 0.7185 0.4190 0.5550
vn 0.7163 0.4194 -0.5576
vn 0.4725 -0.6773 0.5639
vn 0.4703 -0.6769 -0.5662
vn -0.6803 0.7003 -0.2161
vn -0.6803 -0.7003 -0.2161
vn 0.6803 0.7003 -0.2161
vn 0.7093 0.6665 -0.2294
vn -0.7093 0.6666 -0.2294
vn 0.6803 -0.7003 -0.2161
vn -0.8158 0.5240 -0.2448
vn 0.8159 0.5239 -0.2447
vn 0.9046 0.3012 0.3015
vn -0.9044 0.3018 0.3015
vn -0.7097 -0.6655 -0.2308
vn 0.7072 -0.6680 -0.2316
vn -0.8220 -0.5125 -0.2482
vn -0.5820 -0.5683 -0.5817
vn 0.8167 -0.5188 -0.2527
vn 0.5728 -0.5854 -0.5738
vn -0.6229 0.7088 -0.3310
vn 0.6233 0.7085 -0.3309
vn -0.6283 -0.6983 -0.3430
vn 0.6143 -0.7101 -0.3440
vn -0.7170 0.2976 0.6302
vn -0.7170 0.2977 -0.6302
vn -0.2965 0.7175 0.6302
vn 0.2977 0.7170 0.6302
vn 0.2977 0.7170 -0.6302
vn -0.2965 0.7175 -0.6302
vn 0.7175 0.2965 -0.6303
vn 0.7175 0.2965 0.6302
usemtl None
s off
f 167/1/1 168/2/1 173/3/1 174/4/1
f 172/5/2 155/6/2 157/7/2 169/8/2
f 163/9/3 164/10/3 161/11/3 162/12/3
f 166/13/4 163/9/4 155/6/4 156/14/4
f 173/15/4 156/14/4 155/6/4 172/5/4
f 174/16/5 173/17/5 172/5/5 171/18/5
f 171/18/6 172/5/6 169/8/6 170/19/6
f 156/20/7 158/21/7 159/22/7 166/23/7
f 155/6/8 163/9/8 162/12/8 157/7/8
f 160/24/9 161/11/9 164/10/9 165/25/9
f 168/2/10 158/21/10 156/20/10 173/3/10
f 163/9/11 166/26/11 165/25/11 164/10/11
f 169/8/12 168/27/12 167/28/12 170/19/12
f 159/22/13 160/29/13 165/30/13 166/23/13
f 160/24/14 159/31/14 162/12/14 161/11/14
f 157/7/15 162/12/15 159/32/15 158/33/15
f 168/34/15 169/8/15 157/7/15 158/33/15
f 171/18/16 170/19/16 167/28/16 174/16/16
s 1
f 10/35/17 6/36/18 5/37/19 9/38/20
f 11/39/21 7/40/22 6/36/18 10/35/17
f 12/41/23 8/42/24 7/40/22 11/39/21
f 9/43/20 5/44/19 8/42/24 12/41/23
f 13/45/25 10/35/17 9/38/20
f 13/45/25 11/39/21 10/35/17
f 13/45/25 12/41/23 11/39/21
f 13/45/25 9/43/20 12/41/23
f 23/46/26 15/47/27 14/48/28 22/49/29
f 24/50/30 16/51/31 15/47/27 23/46/26
f 25/52/32 17/53/33 16/51/31 24/50/30
f 22/54/29 14/55/28 17/53/33 25/52/32
f 26/56/34 19/57/35 18/58/36 28/59/37
f 27/60/38 20/61/39 19/57/35 26/56/34
f 30/62/40 21/63/41 20/61/39 27/60/38
f 28/64/37 18/65/36 21/63/41 30/62/40
f 6/36/18 23/46/26 22/49/29 5/37/19
f 7/40/22 24/50/30 23/46/26 6/36/18
f 8/42/24 25/52/32 24/50/30 7/40/22
f 5/44/19 22/54/29 25/52/32 8/42/24
f 1/66/42 2/67/43 50/68/44 51/69/45
f 4/70/46 1/71/42 51/72/45 52/73/47
f 3/74/48 4/70/46 52/73/47 53/75/49
f 2/67/43 3/74/48 53/75/49 50/68/44
f 19/57/35 2/67/43 1/66/42 18/58/36
f 20/61/39 3/74/48 2/67/43 19/57/35
f 21/63/41 4/70/46 3/74/48 20/61/39
f 18/65/36 1/71/42 4/70/46 21/63/41
f 27/60/38 26/56/34 29/76/50
f 29/76/50 26/56/34 28/59/37
f 15/47/27 29/76/50 28/59/37 14/48/28
f 16/51/31 27/60/38 29/76/50 15/47/27
f 17/53/33 30/62/40 27/60/38 16/51/31
f 14/55/28 28/64/37 30/62/40 17/53/33
f 29/77/50 26/78/34 31/79/51 32/80/51
f 68/81/51 70/82/51 69/83/51 67/84/51
f 42/85/52 41/86/53 37/87/54 38/88/55
f 43/89/56 42/85/52 38/88/55 39/90/57
f 44/91/58 43/89/56 39/90/57 40/92/59
f 41/93/53 44/91/58 40/92/59 37/94/54
f 45/95/60 41/86/53 42/85/52
f 45/95/60 42/85/52 43/89/56
f 45/95/60 43/89/56 44/91/58
f 45/95/60 44/91/58 41/93/53
f 59/96/61 58/97/62 46/98/63 47/99/64
f 60/100/65 59/96/61 47/99/64 48/101/66
f 61/102/67 60/100/65 48/101/66 49/103/68
f 58/104/62 61/102/67 49/103/68 46/105/63
f 62/106/69 63/107/70 54/108/71 55/109/72
f 65/110/73 62/106/69 55/109/72 56/111/74
f 66/112/75 65/110/73 56/111/74 57/113/76
f 63/114/70 66/112/75 57/113/76 54/115/71
f 38/88/55 37/87/54 58/97/62 59/96/61
f 39/90/57 38/88/55 59/96/61 60/100/65
f 40/92/59 39/90/57 60/100/65 61/102/67
f 37/94/54 40/92/59 61/102/67 58/104/62
f 33/116/77 51/117/45 50/118/44 34/119/78
f 36/120/79 52/121/47 51/122/45 33/123/77
f 35/124/80 53/125/49 52/121/47 36/120/79
f 34/119/78 50/118/44 53/125/49 35/124/80
f 55/109/72 54/108/71 33/116/77 34/119/78
f 56/111/74 55/109/72 34/119/78 35/124/80
f 57/113/76 56/111/74 35/124/80 36/120/79
f 54/115/71 57/113/76 36/120/79 33/123/77
f 65/110/73 64/126/81 62/106/69
f 64/126/81 63/107/70 62/106/69
f 47/99/64 46/98/63 63/107/70 64/126/81
f 48/101/66 47/99/64 64/126/81 65/110/73
f 49/103/68 48/101/66 65/110/73 66/112/75
f 46/105/63 49/103/68 66/112/75 63/114/70
f 64/127/81 68/81/51 67/84/51 62/128/69
f 31/79/51 69/83/51 70/82/51 32/80/51
f 71/129/82 72/130/83 74/131/84 73/132/85
f 74/131/84 78/133/86 86/134/87 83/135/88
f 77/136/89 78/137/86 76/138/90 75/139/91
f 76/140/90 72/130/83 80/141/92 81/142/93
f 73/132/85 77/136/89 75/139/91 71/129/82
f 78/133/86 74/131/84 72/130/83 76/140/90
f 82/143/94 81/144/93 80/145/92 79/146/95
f 75/139/91 76/138/90 81/144/93 82/143/94
f 72/130/83 71/129/82 79/147/95 80/141/92
f 71/129/82 75/139/91 82/143/94 79/147/95
f 83/148/88 86/149/87 90/150/96 87/151/97
f 73/132/85 74/131/84 83/135/88 84/152/98
f 78/137/86 77/136/89 85/153/99 86/154/87
f 77/136/89 73/132/85 84/152/98 85/153/99
f 90/155/96 89/156/100 93/157/101 94/158/102
f 84/159/98 83/148/88 87/151/97 88/160/103
f 86/161/87 85/162/99 89/156/100 90/155/96
f 85/162/99 84/159/98 88/160/103 89/156/100
f 91/163/104 94/164/102 98/165/105 95/166/106
f 89/156/100 88/160/103 92/167/107 93/157/101
f 87/151/97 90/150/96 94/164/102 91/163/104
f 88/160/103 87/151/97 91/163/104 92/167/107
f 95/166/106 98/165/105 102/168/108 99/169/109
f 92/167/107 91/163/104 95/166/106 96/170/110
f 94/158/102 93/157/101 97/171/111 98/172/105
f 93/157/101 92/167/107 96/170/110 97/171/111
f 103/173/112 107/174/113 108/175/114 104/176/115
f 96/170/110 95/166/106 99/169/109 100/177/116
f 98/172/105 97/171/111 101/178/117 102/179/108
f 97/171/111 96/170/110 100/177/116 101/178/117
f 101/178/117 105/180/118 106/181/119 102/179/108
f 99/169/109 102/168/108 106/182/119 103/173/112
f 100/177/116 104/176/115 105/180/118 101/178/117
f 104/176/115 108/175/114 109/183/120 105/180/118
f 107/174/113 111/184/121 112/185/122 108/175/114
f 106/182/119 110/186/123 107/174/113 103/173/112
f 106/181/119 105/180/118 109/183/120 110/187/123
f 110/187/123 109/183/120 113/188/124 114/189/125
f 108/175/114 112/185/122 113/188/124 109/183/120
f 110/186/123 114/190/125 111/184/121 107/174/113
f 113/188/124 112/185/122 116/191/126 117/192/127
f 116/191/126 115/193/128 118/194/129 117/192/127
f 111/184/121 114/190/125 118/194/129 115/193/128
f 112/185/122 111/184/121 115/193/128 116/191/126
f 114/189/125 113/188/124 117/192/127 118/194/129
f 99/169/109 103/173/112 104/176/115 100/177/116
f 119/195/82 120/196/83 122/197/130 121/198/131
f 122/197/130 126/199/132 134/200/133 131/201/134
f 125/202/135 126/203/132 124/204/90 123/205/91
f 124/206/90 120/196/83 128/207/92 129/208/93
f 121/198/131 125/202/135 123/205/91 119/195/82
f 126/199/132 122/197/130 120/196/83 124/206/90
f 130/209/94 129/210/93 128/211/92 127/212/95
f 123/205/91 124/204/90 129/210/93 130/209/94
f 120/196/83 119/195/82 127/213/95 128/207/92
f 119/195/82 123/205/91 130/209/94 127/213/95
f 138/214/136 141/215/137 137/216/138 135/217/139
f 121/198/131 122/197/130 131/201/134 132/218/140
f 126/203/132 125/202/135 133/219/141 134/220/133
f 125/202/135 121/198/131 132/218/140 133/219/141
f 139/221/142 138/214/136 135/217/139 136/222/143
f 141/223/137 140/224/144 146/225/145 137/226/138
f 140/224/144 139/221/142 136/222/143 146/225/145
f 144/227/146 145/228/147 141/229/137 138/230/136
f 143/231/148 144/227/146 138/230/136 139/232/142
f 145/233/147 142/234/149 140/235/144 141/236/137
f 142/234/149 143/231/148 139/232/142 140/235/144
f 131/201/134 134/200/133 145/228/147 144/227/146
f 132/218/140 131/201/134 144/227/146 143/231/148
f 134/220/133 133/219/141 142/234/149 145/233/147
f 133/219/141 132/218/140 143/231/148 142/234/149
f 136/237/143 135/238/139 148/239/150 151/240/151
f 147/241/152 150/242/153 153/243/154 152/244/155
f 137/226/138 146/225/145 154/245/156 149/246/157
f 146/225/145 136/222/143 151/247/151 152/248/155 153/249/154 154/250/156
f 153/243/154 150/242/153 149/246/157 154/245/156
f 151/240/151 148/239/150 147/241/152 152/244/155
f 135/217/139 137/216/138 149/251/157 150/252/153 147/253/152 148/254/150
